<?xml version="1.0" encoding="UTF-8" standalone="no"?>
<!DOCTYPE svg PUBLIC "-//W3C//DTD SVG 1.1//EN" "http://www.w3.org/Graphics/SVG/1.1/DTD/svg11.dtd">
<svg width="100%" height="100%" viewBox="0 0 6000 6000" version="1.1" xmlns="http://www.w3.org/2000/svg" xmlns:xlink="http://www.w3.org/1999/xlink" xml:space="preserve" xmlns:serif="http://www.serif.com/" style="fill-rule:evenodd;clip-rule:evenodd;stroke-linecap:round;stroke-linejoin:round;stroke-miterlimit:1.5;">
    <g transform="matrix(1,0,-0.0701211,1,1064,900)">
        <g transform="matrix(4.06862,0,-0.665293,2.84516,-3140.25,-2932.36)">
            <path d="M1130.6,1194.67L1123.9,1077.51L1237.69,1077.51C1373.78,1077.51 1502.01,1157.56 1599.53,1285.09C1696.6,1412.03 1763.91,1587.1 1776.59,1780.81C1801.14,2156.18 1607.85,2459.98 1345.36,2459.98L1212.96,2459.98L1205.64,2342.82L1320.45,2342.82C1546.63,2342.82 1712.44,2080.12 1691.29,1756.68C1681.1,1600.98 1628.69,1459.73 1550.66,1357.69C1473.08,1256.24 1370.85,1194.67 1262.6,1194.67L1130.6,1194.67Z" style="fill:rgb(194,11,11);"/>
        </g>
        <g transform="matrix(1,0,-0.1403,1,6.34768,3.41061e-13)">
            <path d="M1226.02,900L2567.68,900C2567.68,900 3026.02,1355.9 3026.02,2100C3026.02,2844.1 2567.68,3300 2567.68,3300L1226.02,3300L1226.02,900Z" style="fill:rgb(72,191,255);stroke:rgb(194,11,11);stroke-width:92.49px;"/>
        </g>
        <g transform="matrix(2.44117,0,-0.399176,2.84516,-1407.76,-2932.36)">
            <path d="M1250.03,2401.4L1250.03,1768.75L1250.03,1136.09" style="fill:none;stroke:rgb(194,11,11);stroke-width:104.3px;"/>
        </g>
        <g transform="matrix(1,0,-0.0995645,0.709655,-30.371,261.716)">
            <path d="M2525.1,887.339L2610.26,912.661L2610.26,1217.04L2525.1,1191.72L2525.1,887.339Z" style="fill:rgb(194,11,11);"/>
        </g>
        <g transform="matrix(1,0,-0.0950746,0.677653,-350.03,2540.11)">
            <path d="M2525.1,788.536L2610.26,813.858L2610.26,1134.01L2525.1,1108.69L2525.1,788.536Z" style="fill:rgb(194,11,11);"/>
        </g>
    </g>
    <g transform="matrix(1,0,0,1,781.669,1002.21)">
        <g transform="matrix(1.17953,0,0,1.17953,-533.266,-156.07)">
            <path d="M3461.66,969.724L3426.73,907.307C3517.12,856.717 3573.1,761.223 3573.1,657.64C3573.1,499.625 3445.01,371.528 3286.99,371.528L3286.99,300C3484.51,300 3644.63,460.121 3644.63,657.64C3644.63,787.119 3574.65,906.486 3461.66,969.724Z" style="fill:rgb(153,153,153);stroke:rgb(38,38,38);stroke-width:28.26px;"/>
        </g>
        <g transform="matrix(0.832867,0,0,0.835239,606.213,70.3497)">
            <path d="M3461.66,969.724L3417.99,891.703C3502.73,844.275 3555.22,754.749 3555.22,657.64C3555.22,509.501 3435.13,389.41 3286.99,389.41L3286.99,300C3484.51,300 3644.63,460.121 3644.63,657.64C3644.63,787.119 3574.65,906.486 3461.66,969.724Z" style="fill:rgb(153,153,153);stroke:rgb(38,38,38);stroke-width:39.97px;"/>
        </g>
        <g transform="matrix(0.51599,0,0,0.512484,1647.78,282.254)">
            <path d="M3461.66,969.724L3392.51,846.179C3460.77,807.976 3503.05,735.862 3503.05,657.64C3503.05,538.313 3406.32,441.579 3286.99,441.579L3286.99,300C3484.51,300 3644.63,460.121 3644.63,657.64C3644.63,787.119 3574.65,906.486 3461.66,969.724Z" style="fill:rgb(153,153,153);stroke:rgb(38,38,38);stroke-width:64.82px;"/>
        </g>
        <g transform="matrix(0.800083,-0.599889,0.599889,0.800083,-377.513,2005.33)">
            <g transform="matrix(1.10611,0.000631191,-0.000913703,1.6012,-84.0029,352.192)">
                <path d="M3241.73,668.807C3241.73,668.78 3241.73,668.753 3241.73,668.726L3241.69,622.01L3268.83,622C3303.99,593.945 3369.81,575.046 3445.14,575.046C3520.35,575.046 3586.07,593.882 3621.28,621.861L3648.52,621.85L3648.56,668.646C3648.56,668.673 3648.56,668.7 3648.56,668.726C3648.56,720.43 3557.41,762.406 3445.14,762.406C3332.93,762.406 3241.82,720.473 3241.73,668.807Z" style="fill:rgb(64,64,64);stroke:black;stroke-width:24.22px;"/>
            </g>
            <g transform="matrix(1.10611,0.000631191,-0.000913703,1.6012,-84.0029,277.192)">
                <ellipse cx="3445.14" cy="668.726" rx="203.415" ry="93.68" style="fill:rgb(64,64,64);stroke:black;stroke-width:24.22px;"/>
            </g>
        </g>
    </g>
</svg>
